<svg xmlns="http://www.w3.org/2000/svg" viewBox="0 0 19 13" role="img" aria-label="United States flag">
  <rect width="19" height="13" rx="2" fill="#fff"/>
  <path d="M0 0h19v1H0zm0 2h19v1H0zm0 2h19v1H0zm0 2h19v1H0zm0 2h19v1H0zm0 2h19v1H0z" fill="#b22234"/>
  <rect width="8.2" height="7" rx="2" fill="#3c3b6e"/>
  <g fill="#fff">
    <circle cx="1.2" cy="1.2" r=".35"/>
    <circle cx="3" cy="1.2" r=".35"/>
    <circle cx="4.8" cy="1.2" r=".35"/>
    <circle cx="6.6" cy="1.2" r=".35"/>
    <circle cx="2.1" cy="2.3" r=".35"/>
    <circle cx="3.9" cy="2.3" r=".35"/>
    <circle cx="5.7" cy="2.3" r=".35"/>
    <circle cx="1.2" cy="3.4" r=".35"/>
    <circle cx="3" cy="3.4" r=".35"/>
    <circle cx="4.8" cy="3.4" r=".35"/>
    <circle cx="6.6" cy="3.4" r=".35"/>
    <circle cx="2.1" cy="4.5" r=".35"/>
    <circle cx="3.9" cy="4.5" r=".35"/>
    <circle cx="5.7" cy="4.5" r=".35"/>
    <circle cx="1.2" cy="5.6" r=".35"/>
    <circle cx="3" cy="5.6" r=".35"/>
    <circle cx="4.8" cy="5.6" r=".35"/>
    <circle cx="6.6" cy="5.6" r=".35"/>
  </g>
</svg>
