<svg xmlns="http://www.w3.org/2000/svg" viewBox="0 0 64 64">
  <circle cx="32" cy="32" r="30" fill="#f7931a"/>
  <path fill="#fff" d="M38.4 28.4c1.6-1.1 2.6-2.8 2.3-5.6-.4-3.8-3.6-5.1-7.6-5.5v-5.3h-3.2v5.1c-.8 0-1.7 0-2.6.1v-5.2h-3.2v5.3h-6.4v3.4h2.7c1.4 0 1.8.5 1.9 1.4v14.7c-.1.6-.4 1.6-1.7 1.6h-2.9l-.6 3.8h6.9v5.4h3.2v-5.3h2.6v5.3h3.2v-5.4c5.4-.3 9.2-1.9 9.7-7.1.4-4.2-1.6-6.1-4.3-6.9Zm-10.7-7.2c2.2 0 9-.6 9 3.9 0 4.3-6.8 3.8-9 3.8v-7.7Zm0 18.7v-8.5c2.7 0 11.1-.8 11.1 4.2 0 4.8-8.4 4.3-11.1 4.3Z"/>
</svg>
